<?xml version="1.0" encoding="UTF-8" standalone="no"?><!DOCTYPE svg PUBLIC "-//W3C//DTD SVG 1.1//EN" "http://www.w3.org/Graphics/SVG/1.1/DTD/svg11.dtd"><svg width="100%" height="100%" viewBox="0 0 4320 4320" version="1.1" xmlns="http://www.w3.org/2000/svg" xmlns:xlink="http://www.w3.org/1999/xlink" xml:space="preserve" xmlns:serif="http://www.serif.com/" style="fill-rule:evenodd;clip-rule:evenodd;stroke-linecap:round;stroke-linejoin:round;stroke-miterlimit:1.5;"><rect x="0" y="0" width="4320" height="4320" style="fill:#930016;"/><path d="M1904.42,682.344c54.582,-88.799 151.345,-142.901 255.577,-142.901c104.232,-0 200.995,54.102 255.577,142.901c407.31,662.631 1200.71,1953.38 1623.45,2641.11c56.9,92.568 59.299,208.667 6.272,303.506c-53.028,94.84 -153.192,153.593 -261.849,153.593l-3246.9,0c-108.657,0 -208.821,-58.753 -261.849,-153.593c-53.027,-94.839 -50.628,-210.938 6.272,-303.506c422.742,-687.739 1216.14,-1978.48 1623.45,-2641.11Z" style="fill:none;"/><clipPath id="_clip1"><path d="M1904.42,682.344c54.582,-88.799 151.345,-142.901 255.577,-142.901c104.232,-0 200.995,54.102 255.577,142.901c407.31,662.631 1200.71,1953.38 1623.45,2641.11c56.9,92.568 59.299,208.667 6.272,303.506c-53.028,94.84 -153.192,153.593 -261.849,153.593l-3246.9,0c-108.657,0 -208.821,-58.753 -261.849,-153.593c-53.027,-94.839 -50.628,-210.938 6.272,-303.506c422.742,-687.739 1216.14,-1978.48 1623.45,-2641.11Z"/></clipPath><g clip-path="url(#_clip1)"><rect x="2450.55" y="3458.56" width="1632.9" height="322" style="fill:#c10000;stroke:#c10000;stroke-width:104.17px;"/><rect x="236.549" y="3458.56" width="2481.9" height="322" style="fill:#c10000;stroke:#c10000;stroke-width:104.17px;"/><rect x="2718.4" y="2730" width="1374" height="376" style="fill:#c10000;stroke:#c10000;stroke-width:104.17px;"/><rect x="236.549" y="2730" width="1374" height="376" style="fill:#c10000;stroke:#c10000;stroke-width:104.17px;"/><rect x="236.549" y="2016" width="1234" height="375" style="fill:#c10000;stroke:#c10000;stroke-width:104.17px;"/><rect x="1094.07" y="1330" width="1990.38" height="370" style="fill:#c10000;stroke:#c10000;stroke-width:104.17px;"/><rect x="2450.55" y="1330" width="737.451" height="370" style="fill:#c10000;stroke:#c10000;stroke-width:104.17px;"/><rect x="1401.55" y="598.443" width="1553.9" height="427" style="fill:#c10000;stroke:#c10000;stroke-width:104.17px;"/><rect x="2383.55" y="598.443" width="534.902" height="427" style="fill:#c10000;stroke:#c10000;stroke-width:104.17px;"/><rect x="2851.5" y="2016" width="1240.9" height="375" style="fill:#c10000;stroke:#c10000;stroke-width:104.17px;"/></g><path d="M1904.42,682.344c54.582,-88.799 151.345,-142.901 255.577,-142.901c104.232,-0 200.995,54.102 255.577,142.901c407.31,662.631 1200.71,1953.38 1623.45,2641.11c56.9,92.568 59.299,208.667 6.272,303.506c-53.028,94.84 -153.192,153.593 -261.849,153.593l-3246.9,0c-108.657,0 -208.821,-58.753 -261.849,-153.593c-53.027,-94.839 -50.628,-210.938 6.272,-303.506c422.742,-687.739 1216.14,-1978.48 1623.45,-2641.11Z" style="fill:none;stroke:#c10000;stroke-width:104.17px;"/><g><path d="M2131.29,2141.09c-28.052,-9.08 -45.317,-22.82 -36.783,-45.797c24.223,-65.219 123.419,-178.01 280.645,-119.614c149.44,55.505 148.08,164.322 137.221,238.373c25.82,19.837 38.909,37.289 34.468,49.245c-6.139,16.528 -41.654,11.438 -94.707,-4.787c-1.627,12.68 -4.71,25.365 -9.346,37.846c-33.229,89.466 -133.739,134.791 -224.31,101.151c-90.57,-33.639 -137.124,-133.585 -103.895,-223.051c4.433,-11.935 10.063,-23.085 16.707,-33.366Z" style="fill:#c10000;"/><path d="M1999.6,2754.8l92.713,294.689l-74.299,191.514" style="fill:none;stroke:#c10000;stroke-width:125px;"/><path d="M2206.02,2368.71l-205.061,378.298l229.807,239.635l89.231,254.355" style="fill:none;stroke:#c10000;stroke-width:125px;"/><path d="M2592.05,2587.16l-722.55,-543.123" style="fill:none;stroke:#c10000;stroke-width:125px;"/><path d="M2183.58,2408.62l136.42,232.404l126.43,-193.011" style="fill:none;stroke:#c10000;stroke-width:125px;"/><path d="M1936.67,1881.1l74.362,57.926l-208.718,267.939l-74.362,-57.926l208.718,-267.939Z" style="fill:#c63636;stroke:#c10000;stroke-width:125px;"/></g></svg>