<?xml version="1.0" encoding="UTF-8" standalone="no"?><!DOCTYPE svg PUBLIC "-//W3C//DTD SVG 1.1//EN" "http://www.w3.org/Graphics/SVG/1.1/DTD/svg11.dtd"><svg width="100%" height="100%" viewBox="0 0 1520 1520" version="1.1" xmlns="http://www.w3.org/2000/svg" xmlns:xlink="http://www.w3.org/1999/xlink" xml:space="preserve" xmlns:serif="http://www.serif.com/" style="fill-rule:evenodd;clip-rule:evenodd;stroke-linejoin:round;stroke-miterlimit:2;"><g><rect x="778.271" y="592.419" width="36.802" height="36.515"/><path d="M848.407,592.419l-0,36.515c-0,18.41 -14.924,33.334 -33.333,33.334l-36.803,-0c-18.409,-0 -33.333,-14.924 -33.333,-33.334l0,-36.515c0,-18.41 14.924,-33.333 33.333,-33.333l36.803,-0c18.409,-0 33.333,14.923 33.333,33.333Zm-33.333,-0l-36.803,-0l0,36.515l36.803,0l-0,-36.515Z"/><path d="M941.719,1083.54c-53.075,-74.73 68.519,-565.818 122.28,-640.222c51.584,-71.39 216.444,-54.688 179.497,13.67c-50.999,94.355 -142.786,474.561 -113.866,606.366c15.887,72.406 -144.027,81.974 -187.911,20.186Z" style="fill:#c80000;fill-rule:nonzero;"/><path d="M914.543,1102.84c-8.82,-12.418 -15.569,-32.732 -18.003,-59.762c-2.798,-31.067 -0.783,-73.019 4.928,-120.686c21.626,-180.5 96.631,-444.785 135.513,-498.597c23.023,-31.864 63.048,-51.239 104.235,-57.572c40.959,-6.298 82.174,0.6 106.932,15.729c15.962,9.754 26.466,22.915 31.189,37.807c4.822,15.205 4.278,33.105 -6.517,53.078c-29.721,54.988 -73.068,210.107 -97.432,352.915c-15.849,92.902 -24.163,180.487 -13.199,230.457c10.34,47.125 -19.825,82.016 -70.63,95.536c-33.88,9.016 -76.995,7.806 -112.919,-4.359c-26.956,-9.129 -49.805,-24.422 -64.097,-44.546Zm27.176,-19.301c43.884,61.788 203.798,52.22 187.911,-20.186c-28.92,-131.805 62.867,-512.011 113.866,-606.366c36.947,-68.358 -127.913,-85.06 -179.497,-13.67c-53.761,74.404 -175.355,565.492 -122.28,640.222Z"/><path d="M1177.39,1074.54c-53.075,-74.73 68.519,-565.818 122.28,-640.222c51.583,-71.39 216.444,-54.688 179.496,13.67c-50.998,94.355 -142.785,474.561 -113.865,606.366c15.886,72.406 -144.027,81.974 -187.911,20.186Z" style="fill:#c80000;fill-rule:nonzero;"/><path d="M1150.22,1093.84c-8.82,-12.418 -15.569,-32.732 -18.003,-59.762c-2.798,-31.067 -0.783,-73.019 4.928,-120.686c21.626,-180.5 96.631,-444.785 135.513,-498.597c23.023,-31.864 63.048,-51.239 104.235,-57.572c40.959,-6.298 82.174,0.6 106.932,15.729c15.962,9.754 26.466,22.915 31.189,37.807c4.822,15.205 4.278,33.105 -6.518,53.078c-29.721,54.988 -73.067,210.107 -97.431,352.915c-15.849,92.902 -24.164,180.487 -13.2,230.457c10.34,47.125 -19.824,82.016 -70.629,95.536c-33.881,9.016 -76.995,7.806 -112.919,-4.359c-26.957,-9.129 -49.805,-24.422 -64.097,-44.546Zm27.176,-19.301c43.884,61.788 203.797,52.22 187.911,-20.186c-28.92,-131.805 62.867,-512.011 113.865,-606.366c36.948,-68.358 -127.913,-85.06 -179.496,-13.67c-53.761,74.404 -175.355,565.492 -122.28,640.222Z"/><path d="M114.901,1089.25c-62.026,-82.38 -98.982,-512.443 -36.479,-603.089c53.877,-78.136 129.261,-93.401 197.362,-86.002c43.547,4.731 91.082,49.677 73.213,98.063c-51.124,138.44 -103.935,427.004 -92.797,429.552c19.568,4.477 38.824,-292.63 120.92,-355.542c45.459,-34.835 176.099,-25.263 151.928,42.242c-25.046,69.948 -44.026,313.386 -32.973,315.822c10.273,2.265 40.179,-383.895 122.565,-456.569c89.275,-78.751 235.792,-60.997 186.576,24.495c-139.687,242.648 -102.886,633.922 -306.668,645.044c-49.187,2.684 -79.908,-26.701 -100.029,-62.219c-39.734,-70.14 13.055,-304.247 0,-305.827c-13.208,-1.599 -23.121,246.181 -78.881,318.07c-59.38,76.555 -140.299,81.546 -204.737,-4.04Z" style="fill:#c80000;fill-rule:nonzero;"/><path d="M370.778,537.092c37.683,-19.254 99.247,-23.419 140.182,-7.839c11.702,4.453 21.81,10.406 30.022,17.555c15.878,-44.429 34.852,-79.774 55.607,-98.083c64.316,-56.734 154.088,-68.935 202.281,-49.701c23.588,9.415 39.37,25.592 46.055,45.778c6.151,18.575 5.149,42.306 -10.82,70.046c-82.74,143.726 -102.002,340.508 -148.231,477.121c-36.357,107.438 -90.583,179.396 -185.509,184.577c-63.837,3.483 -104.735,-32.976 -130.849,-79.073c-2.246,-3.965 -4.275,-8.381 -6.098,-13.195c-5.399,11.443 -11.213,21.408 -17.441,29.438c-37.13,47.869 -82.045,71.537 -126.7,71.686c-44.442,0.148 -90.904,-22.845 -131.006,-76.106c-12.905,-17.141 -25.623,-46.99 -36.15,-85.543c-21.821,-79.917 -36.823,-200.395 -39.05,-309.193c-1.289,-63.011 1.735,-122.143 9.873,-167.524c6.254,-34.871 16.039,-62.402 28.036,-79.801c62.42,-90.526 149.505,-108.79 228.404,-100.218c29.705,3.227 60.915,19.906 81.507,44.294c22.673,26.854 32.797,62.111 19.376,98.454c-3.16,8.557 -6.329,17.702 -9.489,27.327Zm-255.877,552.154c64.438,85.586 145.357,80.595 204.737,4.04c55.76,-71.889 65.673,-319.669 78.881,-318.07c13.055,1.58 -39.734,235.687 0,305.827c20.121,35.518 50.842,64.903 100.029,62.219c203.782,-11.122 166.981,-402.396 306.668,-645.044c49.216,-85.492 -97.301,-103.246 -186.576,-24.495c-82.386,72.674 -112.292,458.834 -122.565,456.569c-11.053,-2.436 7.927,-245.874 32.973,-315.822c24.171,-67.505 -106.469,-77.077 -151.928,-42.242c-82.096,62.912 -101.352,360.019 -120.92,355.542c-11.138,-2.548 41.673,-291.112 92.797,-429.552c17.869,-48.386 -29.666,-93.332 -73.213,-98.063c-68.101,-7.399 -143.485,7.866 -197.362,86.002c-62.503,90.646 -25.547,520.709 36.479,603.089Z"/><path d="M825.252,605.056c-17.909,-22.574 6.296,-92.316 33.056,-115.778c42.284,-37.074 109.53,-15.004 120.595,-0c26.778,36.31 -11.183,106.795 -25.831,117.837c-33.064,24.926 -113.065,16.54 -127.82,-2.059Zm-127.25,487.491c-25.379,-57.381 54.35,-372.099 97.659,-431.848c32.277,-44.528 167.291,-40.577 146.23,23.791c-18.696,57.138 -79.911,289.154 -58.473,387.871c17.214,79.268 -161.018,75.348 -185.416,20.186Z" style="fill:#c80000;fill-rule:nonzero;"/><path d="M794.216,618.256c-6.439,-11.929 -9.643,-28.118 -7.98,-46.699c3.362,-37.582 26.413,-86.578 50.097,-107.343c34.225,-30.008 80.283,-32.698 115.109,-24.552c27.318,6.389 47.262,20.306 54.288,29.831c16.148,21.897 18.98,51.719 12.391,81.07c-8.649,38.533 -33.386,74.427 -44.983,83.169c-1.745,1.316 -3.589,2.57 -5.523,3.764c1.247,1.949 2.375,3.95 3.381,6c6.959,14.174 9.16,31.236 2.576,51.36c-17.868,54.607 -78.069,276.086 -57.58,370.431c11.102,51.125 -22.699,85.405 -76.397,96.904c-35.788,7.664 -80.198,4.409 -113.776,-7.938c-28.534,-10.493 -49.39,-28.075 -58.302,-48.223c-8.921,-20.172 -9.53,-67.496 -0.76,-125.738c18.274,-121.352 70.193,-295.392 101.915,-339.156c6.295,-8.683 15.026,-16.442 25.544,-22.88Zm31.036,-13.2c14.755,18.599 94.756,26.985 127.82,2.059c14.648,-11.042 52.609,-81.527 25.831,-117.837c-11.065,-15.004 -78.311,-37.074 -120.595,-0c-26.76,23.462 -50.965,93.204 -33.056,115.778Zm-127.25,487.491c24.398,55.162 202.63,59.082 185.416,-20.186c-21.438,-98.717 39.777,-330.733 58.473,-387.871c21.061,-64.368 -113.953,-68.319 -146.23,-23.791c-43.309,59.749 -123.038,374.467 -97.659,431.848Z"/></g></svg>